<svg width="100" height="100" viewBox="0 0 100 100" fill="none" xmlns="http://www.w3.org/2000/svg">
<path opacity="0.15" d="M49.0196 100C76.0924 100 98.0392 78.0532 98.0392 50.9804C98.0392 23.9076 76.0924 1.96082 49.0196 1.96082C21.9468 1.96082 0 23.9076 0 50.9804C0 78.0532 21.9468 100 49.0196 100Z" fill="white"/>
<path d="M50.9803 98.0392C78.0531 98.0392 99.9999 76.0924 99.9999 49.0196C99.9999 21.9468 78.0531 0 50.9803 0C23.9075 0 1.96069 21.9468 1.96069 49.0196C1.96069 76.0924 23.9075 98.0392 50.9803 98.0392Z" fill="#E42E2E"/>
<path d="M50.9803 9.80396C72.6382 9.80396 90.196 27.3618 90.196 49.0196C90.196 70.6775 72.6382 88.2353 50.9803 88.2353C29.3225 88.2353 11.7646 70.6775 11.7646 49.0196C11.7646 27.3618 29.3225 9.80396 50.9803 9.80396Z" fill="white"/>
<path fill-rule="evenodd" clip-rule="evenodd" d="M50.9804 19.6078C67.2245 19.6078 80.3921 32.7754 80.3921 49.0196C80.3921 65.2627 67.2245 78.4313 50.9804 78.4313C34.7363 78.4313 21.5686 65.2627 21.5686 49.0196C21.5686 32.7754 34.7363 19.6078 50.9804 19.6078Z" fill="#E42E2E"/>
<path d="M50.9804 29.4117C61.8098 29.4117 70.5882 38.1912 70.5882 49.0196C70.5882 59.848 61.8098 68.6274 50.9804 68.6274C40.151 68.6274 31.3726 59.848 31.3726 49.0196C31.3726 38.1912 40.151 29.4117 50.9804 29.4117Z" fill="white"/>
<path fill-rule="evenodd" clip-rule="evenodd" d="M50.9804 39.2157C56.3951 39.2157 60.7844 43.6049 60.7844 49.0196C60.7844 54.4333 56.3951 58.8235 50.9804 58.8235C45.5657 58.8235 41.1765 54.4333 41.1765 49.0196C41.1765 43.6049 45.5657 39.2157 50.9804 39.2157Z" fill="#E42E2E"/>
<path fill-rule="evenodd" clip-rule="evenodd" d="M87.2549 72.5491H74.5098L87.2549 85.2942H100L87.2549 72.5491Z" fill="#E42E2E"/>
<path fill-rule="evenodd" clip-rule="evenodd" d="M87.2549 98.0393V85.2942L74.5098 72.5491V85.2942L87.2549 98.0393Z" fill="#E42E2E"/>
<path fill-rule="evenodd" clip-rule="evenodd" d="M87.2549 72.5491H74.5098L87.2549 85.2942H100L87.2549 72.5491Z" fill="#E42E2E"/>
<path opacity="0.15" d="M49.45 47.4891L14.8245 82.1146C15.4888 82.8358 16.1744 83.5371 16.8803 84.2175L51.5294 49.5685C51.6698 49.4329 51.7819 49.2706 51.8589 49.0912C51.936 48.9118 51.9766 48.7188 51.9783 48.5235C51.98 48.3283 51.9428 48.1346 51.8688 47.9539C51.7949 47.7732 51.6857 47.609 51.5476 47.4709C51.4095 47.3328 51.2453 47.2236 51.0646 47.1497C50.8839 47.0757 50.6902 47.0385 50.4949 47.0402C50.2997 47.0419 50.1067 47.0825 49.9273 47.1596C49.7479 47.2366 49.5856 47.3487 49.45 47.4891Z" fill="#E42E2E"/>
<path d="M88.5911 88.1334C88.2147 88.1334 87.8372 87.9902 87.55 87.703L49.9401 50.0598C49.6763 49.7814 49.5315 49.411 49.5368 49.0274C49.542 48.6439 49.6968 48.2776 49.9681 48.0064C50.2395 47.7353 50.606 47.5809 50.9895 47.576C51.3731 47.5712 51.7434 47.7163 52.0215 47.9804L89.6323 85.6226C89.8377 85.8285 89.9775 86.0906 90.0339 86.3759C90.0904 86.6612 90.0611 86.9568 89.9497 87.2255C89.8383 87.4941 89.6498 87.7237 89.408 87.8853C89.1662 88.0469 88.882 88.1332 88.5911 88.1334Z" fill="#E42E2E"/>
</svg>
