<svg width="138" height="100" viewBox="0 0 138 100" fill="none" xmlns="http://www.w3.org/2000/svg">
<path d="M59.1784 77.4145C59.1784 72.9701 58.5506 71.859 53.0575 71.4423C52.1159 71.4423 51.4881 70.7478 51.4881 69.9145V67.6923C51.4881 67.1367 51.802 66.5812 52.4297 66.3034C59.1784 62.2756 63.5728 55.4701 63.5728 47.8312L63.7297 46.859C63.8867 46.1645 64.5145 45.609 65.2992 45.4701C67.4964 45.0534 69.3797 43.5256 69.8506 41.5812C70.4784 38.6645 68.2811 36.1645 65.2992 35.6089C64.8284 35.4701 64.5145 35.0534 64.5145 34.6367L65.1422 25.7478C65.2992 -8.27995 9.74084 -8.69661 9.42695 25.1923L10.3686 34.9145C10.3686 35.3312 10.2117 35.6089 9.74084 35.7478C7.22973 36.5812 5.50334 39.0812 6.28806 41.7201C6.7589 43.5256 8.79918 44.7756 10.9964 45.3312C11.9381 45.4701 12.5658 46.1645 12.5658 46.9978V47.8312C12.5658 55.609 17.1172 62.5534 24.0228 66.5812C24.3367 66.7201 24.4936 66.9978 24.4936 67.2756V70.0534C24.4936 70.7478 23.8658 71.4423 22.9242 71.4423C17.2742 71.7201 16.6464 72.9701 16.4895 77.2756C16.3325 77.4145 16.1756 77.6923 16.0186 77.8312C6.60195 81.3034 -0.303605 86.3034 0.0102844 98.3867C0.0102844 99.0812 0.638062 99.6367 1.57973 99.6367H74.0881C74.8728 99.6367 75.6575 99.0812 75.6575 98.3867C75.9714 86.3034 69.2228 81.859 59.8061 78.2478C59.4922 77.8312 59.3353 77.6923 59.1784 77.4145Z" fill="#E42E2E"/>
<path d="M124.499 81.4912C124.499 77.8801 123.871 76.9078 119.477 76.6301C118.692 76.6301 118.221 76.0745 118.221 75.3801V73.5745C118.221 73.1578 118.535 72.6023 119.006 72.4634C124.499 69.1301 128.109 63.5745 128.109 57.3245L128.266 56.4912C128.423 55.9356 128.893 55.5189 129.521 55.3801C131.405 54.9634 132.817 53.8523 133.288 52.1856C133.759 49.8245 132.032 47.7412 129.521 47.3245C129.05 47.1856 128.893 46.9078 128.893 46.4912L129.521 39.2689C129.678 11.2134 84.0074 10.7967 83.6935 38.7134L84.4782 46.6301C84.4782 46.9078 84.3212 47.1856 84.0074 47.3245C81.9671 48.0189 80.5546 50.1023 81.1824 52.1856C81.6532 53.7134 83.2226 54.6856 85.106 55.1023C85.8907 55.2412 86.3615 55.7967 86.3615 56.4912V57.1856C86.3615 63.5745 90.1282 69.2689 95.7782 72.6023C96.0921 72.7412 96.0921 73.019 96.0921 73.1578V75.3801C96.0921 75.9356 95.6212 76.4912 94.8365 76.4912C90.1282 76.7689 89.6574 77.7412 89.5004 81.2134C89.3435 81.4912 89.3435 81.6301 89.1865 81.7689C81.4962 84.6856 75.8462 88.7134 76.0032 98.5745C76.0032 99.1301 76.631 99.6856 77.2587 99.6856H136.741C137.368 99.6856 137.996 99.2689 137.996 98.5745C138.153 88.7134 132.817 84.9634 124.97 82.0467C124.813 81.7689 124.656 81.6301 124.499 81.4912Z" fill="#E42E2E"/>
</svg>
