<svg width="84" height="84" viewBox="0 0 84 84" fill="none" xmlns="http://www.w3.org/2000/svg">
<path d="M50.3334 42H56.5834V53.75L66.75 59.625L63.625 65.0417L50.3334 57.375V42ZM8.66671 0.333374H67C69.2102 0.333374 71.3298 1.21135 72.8926 2.77415C74.4554 4.33695 75.3334 6.45657 75.3334 8.66671V34.0834C80.5 39.3334 83.6667 46.5417 83.6667 54.5C83.6667 62.2355 80.5938 69.6542 75.124 75.124C69.6542 80.5938 62.2355 83.6667 54.5 83.6667C46.5417 83.6667 39.3334 80.5 34.0834 75.3334H8.66671C6.45657 75.3334 4.33695 74.4554 2.77415 72.8926C1.21135 71.3298 0.333374 69.2102 0.333374 67V8.66671C0.333374 6.45657 1.21135 4.33695 2.77415 2.77415C4.33695 1.21135 6.45657 0.333374 8.66671 0.333374ZM8.66671 54.5V67H28.125C26.3334 63.2084 25.3334 58.9584 25.3334 54.5H8.66671ZM8.66671 25.3334H33.6667V12.8334H8.66671V25.3334ZM67 25.3334V12.8334H42V25.3334H67ZM8.66671 46.1667H26.5417C27.9584 41.375 30.5834 37.0834 34.0834 33.6667H8.66671V46.1667ZM54.5 34.2917C49.1405 34.2917 44.0004 36.4208 40.2106 40.2106C36.4208 44.0004 34.2917 49.1405 34.2917 54.5C34.2917 65.6667 43.3334 74.7084 54.5 74.7084C57.1538 74.7084 59.7817 74.1857 62.2334 73.1701C64.6852 72.1545 66.913 70.666 68.7895 68.7895C70.666 66.913 72.1545 64.6852 73.1701 62.2334C74.1857 59.7817 74.7084 57.1538 74.7084 54.5C74.7084 43.3334 65.6667 34.2917 54.5 34.2917Z" fill="#E42E2E"/>
</svg>
