<svg width="90" height="68" viewBox="0 0 90 68" fill="none" xmlns="http://www.w3.org/2000/svg">
<path d="M83.8889 0.666626H6.1111C4.63767 0.666626 3.22459 1.25194 2.18273 2.29381C1.14086 3.33568 0.555542 4.74876 0.555542 6.22218V61.7777C0.555542 63.2512 1.14086 64.6642 2.18273 65.7061C3.22459 66.748 4.63767 67.3333 6.1111 67.3333H83.8889C85.3623 67.3333 86.7754 66.748 87.8172 65.7061C88.8591 64.6642 89.4444 63.2512 89.4444 61.7777V6.22218C89.4444 4.74876 88.8591 3.33568 87.8172 2.29381C86.7754 1.25194 85.3623 0.666626 83.8889 0.666626ZM79.6111 61.7777H10.7222L30.1667 41.6666L26.1667 37.8055L6.1111 58.5555V10.4444L40.6389 44.8055C41.6798 45.8402 43.0878 46.421 44.5555 46.421C46.0232 46.421 47.4313 45.8402 48.4722 44.8055L83.8889 9.58329V58.1944L63.4444 37.75L59.5278 41.6666L79.6111 61.7777ZM9.74999 6.22218H79.3889L44.5555 40.8611L9.74999 6.22218Z" fill="#E42E2E"/>
</svg>
