<svg width="80" height="92" viewBox="0 0 80 92" fill="none" xmlns="http://www.w3.org/2000/svg">
<path d="M50 33.3333H58.3333V41.6667H50V33.3333ZM58.3333 16.6667H50V25H58.3333V16.6667ZM33.3333 58.3333H41.6667V50H33.3333V58.3333ZM41.6667 16.6667H33.3333V25H41.6667V16.6667ZM33.3333 41.6667H41.6667V33.3333H33.3333V41.6667ZM25 16.6667H16.6667V25H25V16.6667ZM25 33.3333H16.6667V41.6667H25V33.3333ZM48.125 83.3333H41.6667V68.75H33.3333V83.3333H8.33333V8.33333H66.6667V41.7917C69.625 42.0417 72.4583 42.9583 75 44.2917V0H0V91.6667H53.7917C52.0833 89.3333 50 86.5 48.125 83.3333ZM16.6667 75H25V66.6667H16.6667V75ZM25 50H16.6667V58.3333H25V50ZM79.1667 64.5833C79.1667 75.4167 64.5833 91.6667 64.5833 91.6667C64.5833 91.6667 50 75.4167 50 64.5833C50 56.6667 56.6667 50 64.5833 50C72.5 50 79.1667 56.6667 79.1667 64.5833ZM69.5833 65C69.5833 62.5 67.0833 60 64.5833 60C62.0833 60 59.5833 62.0833 59.5833 65C59.5833 67.5 61.6667 70 64.5833 70C67.5 70 70 67.5 69.5833 65Z" fill="#E42E2E"/>
</svg>
