<?xml version="1.0" standalone="no"?><svg xmlns="http://www.w3.org/2000/svg" viewBox="0 0 1440 320"><path fill="#5000ca" fill-opacity="1" d="M0,64L24,64C48,64,96,64,144,90.7C192,117,240,171,288,192C336,213,384,203,432,176C480,149,528,107,576,117.3C624,128,672,192,720,234.7C768,277,816,299,864,256C912,213,960,107,1008,106.7C1056,107,1104,213,1152,218.7C1200,224,1248,128,1296,106.7C1344,85,1392,139,1416,165.3L1440,192L1440,0L1416,0C1392,0,1344,0,1296,0C1248,0,1200,0,1152,0C1104,0,1056,0,1008,0C960,0,912,0,864,0C816,0,768,0,720,0C672,0,624,0,576,0C528,0,480,0,432,0C384,0,336,0,288,0C240,0,192,0,144,0C96,0,48,0,24,0L0,0Z"></path></svg>